# xmcd
#
# Track frame offsets:
#	150
#	18843
#	28982
#	53086
#	74760
#	106631
#	129589
#	144893
#	168796
#	192565
#	215980
#	242165
#
# Disc length: 3489 seconds
#
# Revision: 14
# Processed by: cddbd v1.5.2PL0 Copyright (c) Steve Scherf et al.
# Submitted via: Jack! The Knife 20 Magnifico
#
DISCID=ae0d9f0c
DTITLE=Pantera - Cowboys From Hell
DYEAR=1990
DGENRE=Metal
TTITLE0=Cowboys From Hell
TTITLE1=Primal Concrete Sledge
TTITLE2=Psycho Holiday
TTITLE3=Heresy
TTITLE4=Cemetary Gates
TTITLE5=Domination
TTITLE6=Shattered
TTITLE7=Clash With Reality
TTITLE8=Medicine Man
TTITLE9=Message In Blood
TTITLE10=The Sleep
TTITLE11=The Art Of Shredding
EXTD=Terry Date
EXTT0=Anselmo, Darrell, Brown, Paul
EXTT1=Anselmo, Darrell, Brown, Paul
EXTT2=Anselmo, Darrell, Brown, Paul
EXTT3=Anselmo, Darrell, Brown, Paul
EXTT4=Anselmo, Darrell, Brown, Paul
EXTT5=Anselmo, Darrell, Brown, Paul
EXTT6=Anselmo, Darrell, Brown, Paul
EXTT7=Anselmo, Darrell, Brown, Paul
EXTT8=Anselmo, Darrell, Brown, Paul
EXTT9=Anselmo, Darrell, Brown, Paul
EXTT10=Anselmo, Darrell, Brown, Paul
EXTT11=Anselmo, Darrell, Brown, Paul
PLAYORDER=
